<svg width="128" height="128" viewBox="0 0 128 128" xmlns="http://www.w3.org/2000/svg">
  <!-- Background -->
  <circle cx="64" cy="64" r="60" fill="#000000"/>
  <circle cx="64" cy="64" r="58" fill="none" stroke="#dc2626" stroke-width="1" opacity="0.5"/>
  
  <!-- Letter S -->
  <g transform="translate(38, 64)">
    <path d="M 0 -24 C -6 -24, -10 -20, -10 -14 C -10 -8, -6 -4, 0 -4 C 6 -4, 10 -8, 10 -14 C 10 -20, 6 -24, 0 -24 Z" fill="#ef4444"/>
    <rect x="-10" y="-2" width="20" height="4" rx="2" fill="#ef4444"/>
    <path d="M 0 4 C 6 4, 10 8, 10 14 C 10 20, 6 24, 0 24 C -6 24, -10 20, -10 14 C -10 8, -6 4, 0 4 Z" fill="#ef4444"/>
    
    <!-- Cutouts S -->
    <path d="M 0 -20 C -4 -20, -6 -16, -6 -12 C -6 -8, -4 -4, 0 -4 C 4 -4, 6 -8, 6 -12 C 6 -16, 4 -20, 0 -20 Z" fill="#000000"/>
    <path d="M 0 4 C 4 4, 6 8, 6 12 C 6 16, 4 20, 0 20 C -4 20, -6 16, -6 12 C -6 8, -4 4, 0 4 Z" fill="#000000"/>
  </g>
  
  <!-- Letter B -->
  <g transform="translate(90, 64)">
    <rect x="-12" y="-24" width="6" height="48" rx="3" fill="#ef4444"/>
    <path d="M -6 -24 L 2 -24 C 8 -24, 12 -20, 12 -14 C 12 -8, 8 -4, 2 -4 L -6 -4 Z" fill="#ef4444"/>
    <path d="M -4 -20 L 0 -20 C 4 -20, 6 -16, 6 -12 C 6 -8, 4 -4, 0 -4 L -4 -4 Z" fill="#000000"/>
    
    <path d="M -6 4 L 2 4 C 8 4, 12 8, 12 14 C 12 20, 8 24, 2 24 L -6 24 Z" fill="#ef4444"/>
    <path d="M -4 8 L 0 8 C 4 8, 6 12, 6 16 C 6 20, 4 24, 0 24 L -4 24 Z" fill="#000000"/>
  </g>
</svg>
